<mxfile host="app.diagrams.net" modified="2021-11-01T08:29:10.036Z" agent="5.0 (Windows NT 10.0; Win64; x64) AppleWebKit/537.36 (KHTML, like Gecko) Chrome/95.0.4638.54 Safari/537.36" etag="6VZRndMqwLEMmliqCVIB" version="15.5.5" type="github">
  <diagram name="Page-1" id="aaaa8250-4180-3840-79b5-4cada1eebb92">
    <mxGraphModel dx="6538" dy="2864" grid="1" gridSize="10" guides="1" tooltips="1" connect="1" arrows="1" fold="1" page="1" pageScale="1" pageWidth="850" pageHeight="1100" background="none" math="0" shadow="0">
      <root>
        <mxCell id="0" />
        <mxCell id="1" parent="0" />
        <mxCell id="CLuHvQ0Rmz4d9WrAWOhu-40" value="" style="verticalLabelPosition=bottom;html=1;verticalAlign=top;strokeWidth=1;align=center;outlineConnect=0;dashed=0;outlineConnect=0;shape=mxgraph.aws3d.flatDoubleEdge;fillColor=#000000;aspect=fixed;" vertex="1" parent="1">
          <mxGeometry x="960" y="1104.4" width="1273.84" height="725.6" as="geometry" />
        </mxCell>
        <mxCell id="CLuHvQ0Rmz4d9WrAWOhu-14" value="" style="verticalLabelPosition=bottom;html=1;verticalAlign=top;strokeWidth=1;align=center;outlineConnect=0;dashed=0;outlineConnect=0;shape=mxgraph.aws3d.flatDoubleEdge;fillColor=#000000;aspect=fixed;" vertex="1" parent="1">
          <mxGeometry x="380" y="1585" width="1106.01" height="630" as="geometry" />
        </mxCell>
        <mxCell id="1a8abee3a6cfdf20-3" value="" style="edgeStyle=isometricEdgeStyle;endArrow=none;html=1;labelBackgroundColor=none;strokeWidth=5;fontFamily=Verdana;fontSize=12;startArrow=none;" parent="1" edge="1" target="CLuHvQ0Rmz4d9WrAWOhu-10" source="1a8abee3a6cfdf20-2">
          <mxGeometry width="50" height="100" relative="1" as="geometry">
            <mxPoint x="1000" y="1820" as="sourcePoint" />
            <mxPoint x="520" y="1470" as="targetPoint" />
            <Array as="points" />
          </mxGeometry>
        </mxCell>
        <mxCell id="1a8abee3a6cfdf20-6" value="" style="verticalLabelPosition=bottom;html=1;verticalAlign=top;strokeWidth=1;dashed=0;shape=mxgraph.aws3d.elasticLoadBalancing;fillColor=#ECECEC;strokeColor=#5E5E5E;aspect=fixed;rounded=1;shadow=0;comic=0;fontSize=12;" parent="1" vertex="1">
          <mxGeometry x="1940" y="1150" width="92" height="88.17" as="geometry" />
        </mxCell>
        <mxCell id="1a8abee3a6cfdf20-10" value="PublicCloud&lt;br&gt;ManagementZone" style="verticalLabelPosition=bottom;html=1;verticalAlign=top;strokeWidth=1;dashed=0;shape=mxgraph.aws3d.internetGateway;fillColor=#ECECEC;strokeColor=#5E5E5E;aspect=fixed;rounded=1;shadow=0;comic=0;fontSize=31;flipH=1;flipV=0;fontStyle=1" parent="1" vertex="1">
          <mxGeometry x="967" y="810" width="210" height="184.99" as="geometry" />
        </mxCell>
        <mxCell id="1a8abee3a6cfdf20-1" value="" style="verticalLabelPosition=bottom;html=1;verticalAlign=top;strokeWidth=1;dashed=0;shape=mxgraph.aws3d.secureConnection;fillColor=#000000;strokeColor=#ffffff;aspect=fixed;rounded=1;shadow=0;comic=0;fontSize=12" parent="1" vertex="1">
          <mxGeometry x="1120" y="1671" width="56.99999999999999" height="34" as="geometry" />
        </mxCell>
        <mxCell id="d5ac148becb70bc-8" value="" style="verticalLabelPosition=bottom;html=1;verticalAlign=top;strokeWidth=1;dashed=0;shape=mxgraph.aws3d.dashedArrowlessEdge;aspect=fixed;rounded=1;shadow=0;comic=0;fontFamily=Verdana;fontSize=12" parent="1" vertex="1">
          <mxGeometry x="1048" y="970.13" width="1456.34" height="829.87" as="geometry" />
        </mxCell>
        <mxCell id="d5ac148becb70bc-9" value="" style="verticalLabelPosition=bottom;html=1;verticalAlign=top;strokeWidth=1;dashed=0;shape=mxgraph.aws3d.dashedArrowlessEdge;aspect=fixed;rounded=1;shadow=0;comic=0;fontFamily=Verdana;fontSize=12" parent="1" vertex="1">
          <mxGeometry x="-340" y="1750.85" width="1455.09" height="829.15" as="geometry" />
        </mxCell>
        <mxCell id="d5ac148becb70bc-10" value="" style="verticalLabelPosition=bottom;html=1;verticalAlign=top;strokeWidth=1;dashed=0;shape=mxgraph.aws3d.dashedArrowlessEdge;fillColor=#000000;aspect=fixed;rounded=1;shadow=0;comic=0;fontFamily=Verdana;fontSize=12;fontColor=#000000;flipV=1;" parent="1" vertex="1">
          <mxGeometry x="-330" y="970.13" width="1375.62" height="782.11" as="geometry" />
        </mxCell>
        <mxCell id="d5ac148becb70bc-12" value="" style="verticalLabelPosition=bottom;html=1;verticalAlign=top;strokeWidth=1;dashed=0;shape=mxgraph.aws3d.dashedArrowlessEdge;aspect=fixed;rounded=1;shadow=0;comic=0;fontFamily=Verdana;fontSize=12;flipV=1;" parent="1" vertex="1">
          <mxGeometry x="1110" y="1790" width="1415.47" height="807.21" as="geometry" />
        </mxCell>
        <mxCell id="CLuHvQ0Rmz4d9WrAWOhu-1" value="AD" style="verticalLabelPosition=bottom;html=1;verticalAlign=top;strokeWidth=1;align=center;outlineConnect=0;dashed=0;outlineConnect=0;shape=mxgraph.aws3d.route53;fillColor=#ECECEC;strokeColor=#5E5E5E;aspect=fixed;fontSize=30;" vertex="1" parent="1">
          <mxGeometry x="1596.34" y="2641" width="117.17" height="134.4" as="geometry" />
        </mxCell>
        <mxCell id="CLuHvQ0Rmz4d9WrAWOhu-2" value="SMTP" style="verticalLabelPosition=bottom;html=1;verticalAlign=top;strokeWidth=1;align=center;outlineConnect=0;dashed=0;outlineConnect=0;shape=mxgraph.aws3d.email_service;fillColor=#ECECEC;strokeColor=#5E5E5E;aspect=fixed;fontSize=30;" vertex="1" parent="1">
          <mxGeometry x="1055.62" y="2290.0000000000005" width="151" height="192" as="geometry" />
        </mxCell>
        <mxCell id="CLuHvQ0Rmz4d9WrAWOhu-4" value="" style="verticalLabelPosition=bottom;html=1;verticalAlign=top;strokeWidth=1;align=center;outlineConnect=0;dashed=0;outlineConnect=0;shape=mxgraph.aws3d.vpcGateway;fillColor=#ECECEC;strokeColor=#5E5E5E;aspect=fixed;" vertex="1" parent="1">
          <mxGeometry x="-540.0000000000002" y="310" width="116.7" height="102.8" as="geometry" />
        </mxCell>
        <mxCell id="CLuHvQ0Rmz4d9WrAWOhu-10" value="&lt;font style=&quot;font-size: 30px;&quot;&gt;OpenSearch&lt;/font&gt;" style="verticalLabelPosition=bottom;html=1;verticalAlign=top;strokeWidth=1;align=center;outlineConnect=0;dashed=0;outlineConnect=0;shape=mxgraph.aws3d.searchEngine;fillColor=#ECECEC;strokeColor=#5E5E5E;aspect=fixed;fontStyle=1;fontSize=30;" vertex="1" parent="1">
          <mxGeometry x="536" y="1592" width="176.25" height="188" as="geometry" />
        </mxCell>
        <mxCell id="CLuHvQ0Rmz4d9WrAWOhu-15" value="OpenSearch" style="verticalLabelPosition=bottom;html=1;verticalAlign=top;strokeWidth=1;align=center;outlineConnect=0;dashed=0;outlineConnect=0;shape=mxgraph.aws3d.searchEngine;fillColor=#ECECEC;strokeColor=#5E5E5E;aspect=fixed;fontSize=30;fontStyle=1" vertex="1" parent="1">
          <mxGeometry x="800" y="1740" width="180" height="192" as="geometry" />
        </mxCell>
        <mxCell id="CLuHvQ0Rmz4d9WrAWOhu-16" value="OpenSearch" style="verticalLabelPosition=bottom;html=1;verticalAlign=top;strokeWidth=1;align=center;outlineConnect=0;dashed=0;outlineConnect=0;shape=mxgraph.aws3d.searchEngine;fillColor=#ECECEC;strokeColor=#5E5E5E;aspect=fixed;fontStyle=1;fontSize=30;" vertex="1" parent="1">
          <mxGeometry x="1080" y="1910" width="180" height="192" as="geometry" />
        </mxCell>
        <mxCell id="1a8abee3a6cfdf20-2" value="" style="verticalLabelPosition=bottom;html=1;verticalAlign=top;strokeWidth=1;dashed=0;shape=mxgraph.aws3d.secureConnection;fillColor=#000000;strokeColor=#ffffff;aspect=fixed;rounded=1;shadow=0;comic=0;fontSize=12" parent="1" vertex="1">
          <mxGeometry x="640.1700000000001" y="1361.13" width="56.99999999999999" height="34" as="geometry" />
        </mxCell>
        <mxCell id="CLuHvQ0Rmz4d9WrAWOhu-20" value="" style="edgeStyle=isometricEdgeStyle;endArrow=none;html=1;labelBackgroundColor=none;strokeWidth=5;fontFamily=Verdana;fontSize=12;startArrow=none;exitX=0.667;exitY=0.412;exitDx=0;exitDy=0;exitPerimeter=0;entryX=0.043;entryY=0.018;entryDx=0;entryDy=0;entryPerimeter=0;" edge="1" parent="1" source="1a8abee3a6cfdf20-2">
          <mxGeometry width="50" height="100" relative="1" as="geometry">
            <mxPoint x="820" y="1557.788475772934" as="sourcePoint" />
            <mxPoint x="927.1883500000004" y="1228.7402999999995" as="targetPoint" />
            <Array as="points" />
          </mxGeometry>
        </mxCell>
        <mxCell id="CLuHvQ0Rmz4d9WrAWOhu-25" value="" style="edgeStyle=isometricEdgeStyle;endArrow=none;html=1;labelBackgroundColor=none;strokeWidth=5;fontFamily=Verdana;fontSize=12;startArrow=none;" edge="1" parent="1" source="1a8abee3a6cfdf20-1" target="CLuHvQ0Rmz4d9WrAWOhu-15">
          <mxGeometry width="50" height="100" relative="1" as="geometry">
            <mxPoint x="817" y="1443.4544826719043" as="sourcePoint" />
            <mxPoint x="963" y="1646.0384757729335" as="targetPoint" />
            <Array as="points" />
          </mxGeometry>
        </mxCell>
        <mxCell id="CLuHvQ0Rmz4d9WrAWOhu-27" value="" style="edgeStyle=isometricEdgeStyle;endArrow=none;html=1;labelBackgroundColor=none;strokeWidth=5;fontFamily=Verdana;fontSize=12;startArrow=none;entryX=0.526;entryY=0.529;entryDx=0;entryDy=0;entryPerimeter=0;" edge="1" parent="1" target="1a8abee3a6cfdf20-1">
          <mxGeometry width="50" height="100" relative="1" as="geometry">
            <mxPoint x="1411.6785306586817" y="1536.25" as="sourcePoint" />
            <mxPoint x="990" y="1794.038475772934" as="targetPoint" />
            <Array as="points" />
          </mxGeometry>
        </mxCell>
        <mxCell id="CLuHvQ0Rmz4d9WrAWOhu-29" value="" style="edgeStyle=isometricEdgeStyle;endArrow=none;html=1;labelBackgroundColor=none;strokeWidth=5;fontFamily=Verdana;fontSize=12;startArrow=none;" edge="1" parent="1" source="d5ac148becb70bc-16" target="CLuHvQ0Rmz4d9WrAWOhu-35">
          <mxGeometry width="50" height="100" relative="1" as="geometry">
            <mxPoint x="1260" y="1954.0384757729335" as="sourcePoint" />
            <mxPoint x="1941.6581132209812" y="1883" as="targetPoint" />
            <Array as="points">
              <mxPoint x="2040" y="1830" />
              <mxPoint x="1950" y="1870" />
              <mxPoint x="1890" y="1920" />
              <mxPoint x="1730" y="2010" />
            </Array>
          </mxGeometry>
        </mxCell>
        <mxCell id="d5ac148becb70bc-16" value="" style="verticalLabelPosition=bottom;html=1;verticalAlign=top;strokeWidth=1;dashed=0;shape=mxgraph.aws3d.secureConnection;fillColor=#000000;strokeColor=#ffffff;aspect=fixed;rounded=1;shadow=0;comic=0;fontSize=12" parent="1" vertex="1">
          <mxGeometry x="1680" y="2000" width="56.99999999999999" height="34" as="geometry" />
        </mxCell>
        <mxCell id="CLuHvQ0Rmz4d9WrAWOhu-30" value="" style="edgeStyle=isometricEdgeStyle;endArrow=none;html=1;labelBackgroundColor=none;strokeWidth=5;fontFamily=Verdana;fontSize=12;startArrow=none;" edge="1" parent="1" source="CLuHvQ0Rmz4d9WrAWOhu-16" target="d5ac148becb70bc-16">
          <mxGeometry width="50" height="100" relative="1" as="geometry">
            <mxPoint x="1260" y="1954.038475772934" as="sourcePoint" />
            <mxPoint x="1943.6135405397818" y="1883" as="targetPoint" />
            <Array as="points" />
          </mxGeometry>
        </mxCell>
        <mxCell id="CLuHvQ0Rmz4d9WrAWOhu-31" value="Fluentd" style="verticalLabelPosition=bottom;html=1;verticalAlign=top;strokeWidth=1;align=center;outlineConnect=0;dashed=0;outlineConnect=0;shape=mxgraph.aws3d.sqs;fillColor=#ECECEC;strokeColor=#5E5E5E;aspect=fixed;direction=east;fontSize=30;fontStyle=1" vertex="1" parent="1">
          <mxGeometry x="370" y="2215" width="184" height="212.75" as="geometry" />
        </mxCell>
        <mxCell id="CLuHvQ0Rmz4d9WrAWOhu-33" value="OpenSearch-Dashboard" style="verticalLabelPosition=bottom;html=1;verticalAlign=top;strokeWidth=1;align=center;outlineConnect=0;dashed=0;outlineConnect=0;shape=mxgraph.aws3d.application2;fillColor=#86E83A;strokeColor=#B0F373;aspect=fixed;fontSize=30;fontStyle=1" vertex="1" parent="1">
          <mxGeometry x="970.15" y="1077" width="149.85" height="128.1" as="geometry" />
        </mxCell>
        <mxCell id="CLuHvQ0Rmz4d9WrAWOhu-34" value="OpenSearch-Dashboard" style="verticalLabelPosition=bottom;html=1;verticalAlign=top;strokeWidth=1;align=center;outlineConnect=0;dashed=0;outlineConnect=0;shape=mxgraph.aws3d.application2;fillColor=#86E83A;strokeColor=#B0F373;aspect=fixed;fontSize=30;fontStyle=1" vertex="1" parent="1">
          <mxGeometry x="1490" y="1375.6999999999998" width="149.85" height="128.1" as="geometry" />
        </mxCell>
        <mxCell id="CLuHvQ0Rmz4d9WrAWOhu-35" value="OpenSearch-Dashboard" style="verticalLabelPosition=bottom;html=1;verticalAlign=top;strokeWidth=1;align=center;outlineConnect=0;dashed=0;outlineConnect=0;shape=mxgraph.aws3d.application2;fillColor=#86E83A;strokeColor=#B0F373;aspect=fixed;fontSize=30;fontStyle=1" vertex="1" parent="1">
          <mxGeometry x="2070" y="1701.9" width="149.85" height="128.1" as="geometry" />
        </mxCell>
        <mxCell id="CLuHvQ0Rmz4d9WrAWOhu-36" value="" style="edgeStyle=isometricEdgeStyle;endArrow=none;html=1;labelBackgroundColor=none;strokeWidth=5;fontFamily=Verdana;fontSize=12;startArrow=none;entryX=0.526;entryY=0.529;entryDx=0;entryDy=0;entryPerimeter=0;" edge="1" parent="1" source="1a8abee3a6cfdf20-6">
          <mxGeometry width="50" height="100" relative="1" as="geometry">
            <mxPoint x="1401.6985306586816" y="950" as="sourcePoint" />
            <mxPoint x="1140.002" y="1102.7359999999999" as="targetPoint" />
            <Array as="points" />
          </mxGeometry>
        </mxCell>
        <mxCell id="CLuHvQ0Rmz4d9WrAWOhu-38" value="" style="edgeStyle=isometricEdgeStyle;endArrow=none;html=1;labelBackgroundColor=none;strokeWidth=5;fontFamily=Verdana;fontSize=12;startArrow=none;exitX=0.326;exitY=0.705;exitDx=0;exitDy=0;exitPerimeter=0;" edge="1" parent="1" source="1a8abee3a6cfdf20-6" target="CLuHvQ0Rmz4d9WrAWOhu-34">
          <mxGeometry width="50" height="100" relative="1" as="geometry">
            <mxPoint x="1900" y="1270" as="sourcePoint" />
            <mxPoint x="1682.3114693413181" y="1380" as="targetPoint" />
            <Array as="points">
              <mxPoint x="1970" y="1220" />
              <mxPoint x="1920" y="1240" />
              <mxPoint x="1770" y="1330" />
            </Array>
          </mxGeometry>
        </mxCell>
        <mxCell id="CLuHvQ0Rmz4d9WrAWOhu-39" value="" style="edgeStyle=isometricEdgeStyle;endArrow=none;html=1;labelBackgroundColor=none;strokeWidth=5;fontFamily=Verdana;fontSize=12;startArrow=none;" edge="1" parent="1">
          <mxGeometry width="50" height="100" relative="1" as="geometry">
            <mxPoint x="1950" y="1230.6431123827228" as="sourcePoint" />
            <mxPoint x="2206.6618867790185" y="1730" as="targetPoint" />
            <Array as="points">
              <mxPoint x="2090" y="1450" />
            </Array>
          </mxGeometry>
        </mxCell>
        <mxCell id="CLuHvQ0Rmz4d9WrAWOhu-41" value="" style="verticalLabelPosition=bottom;html=1;verticalAlign=top;strokeWidth=1;align=center;outlineConnect=0;dashed=0;outlineConnect=0;shape=mxgraph.aws3d.end_user;strokeColor=none;fillColor=#777777;aspect=fixed;fontSize=31;" vertex="1" parent="1">
          <mxGeometry x="2170.85" y="930" width="49" height="100.46" as="geometry" />
        </mxCell>
        <mxCell id="CLuHvQ0Rmz4d9WrAWOhu-42" value="" style="verticalLabelPosition=bottom;html=1;verticalAlign=top;strokeWidth=1;align=center;outlineConnect=0;dashed=0;outlineConnect=0;shape=mxgraph.aws3d.flatDoubleEdge;fillColor=#000000;aspect=fixed;" vertex="1" parent="1">
          <mxGeometry x="2730" y="2074.4" width="1273.84" height="725.6" as="geometry" />
        </mxCell>
        <mxCell id="CLuHvQ0Rmz4d9WrAWOhu-43" value="" style="verticalLabelPosition=bottom;html=1;verticalAlign=top;strokeWidth=1;align=center;outlineConnect=0;dashed=0;outlineConnect=0;shape=mxgraph.aws3d.flatDoubleEdge;fillColor=#000000;aspect=fixed;" vertex="1" parent="1">
          <mxGeometry x="2150" y="2555" width="1106.01" height="630" as="geometry" />
        </mxCell>
        <mxCell id="CLuHvQ0Rmz4d9WrAWOhu-44" value="" style="edgeStyle=isometricEdgeStyle;endArrow=none;html=1;labelBackgroundColor=none;strokeWidth=5;fontFamily=Verdana;fontSize=12;startArrow=none;" edge="1" parent="1" source="CLuHvQ0Rmz4d9WrAWOhu-58" target="CLuHvQ0Rmz4d9WrAWOhu-55">
          <mxGeometry width="50" height="100" relative="1" as="geometry">
            <mxPoint x="2770" y="2790" as="sourcePoint" />
            <mxPoint x="2290" y="2440" as="targetPoint" />
            <Array as="points" />
          </mxGeometry>
        </mxCell>
        <mxCell id="CLuHvQ0Rmz4d9WrAWOhu-45" value="" style="verticalLabelPosition=bottom;html=1;verticalAlign=top;strokeWidth=1;dashed=0;shape=mxgraph.aws3d.elasticLoadBalancing;fillColor=#ECECEC;strokeColor=#5E5E5E;aspect=fixed;rounded=1;shadow=0;comic=0;fontSize=12;" vertex="1" parent="1">
          <mxGeometry x="3710" y="2120" width="92" height="88.17" as="geometry" />
        </mxCell>
        <mxCell id="CLuHvQ0Rmz4d9WrAWOhu-47" value="" style="verticalLabelPosition=bottom;html=1;verticalAlign=top;strokeWidth=1;dashed=0;shape=mxgraph.aws3d.secureConnection;fillColor=#000000;strokeColor=#ffffff;aspect=fixed;rounded=1;shadow=0;comic=0;fontSize=12" vertex="1" parent="1">
          <mxGeometry x="2890" y="2641" width="56.99999999999999" height="34" as="geometry" />
        </mxCell>
        <mxCell id="CLuHvQ0Rmz4d9WrAWOhu-48" value="" style="verticalLabelPosition=bottom;html=1;verticalAlign=top;strokeWidth=1;dashed=0;shape=mxgraph.aws3d.dashedArrowlessEdge;aspect=fixed;rounded=1;shadow=0;comic=0;fontFamily=Verdana;fontSize=12" vertex="1" parent="1">
          <mxGeometry x="2818" y="1940.13" width="1432" height="816" as="geometry" />
        </mxCell>
        <mxCell id="CLuHvQ0Rmz4d9WrAWOhu-49" value="" style="verticalLabelPosition=bottom;html=1;verticalAlign=top;strokeWidth=1;dashed=0;shape=mxgraph.aws3d.dashedArrowlessEdge;aspect=fixed;rounded=1;shadow=0;comic=0;fontFamily=Verdana;fontSize=12" vertex="1" parent="1">
          <mxGeometry x="1480" y="2720.1099999999997" width="1421.27" height="809.89" as="geometry" />
        </mxCell>
        <mxCell id="CLuHvQ0Rmz4d9WrAWOhu-50" value="" style="verticalLabelPosition=bottom;html=1;verticalAlign=top;strokeWidth=1;dashed=0;shape=mxgraph.aws3d.dashedArrowlessEdge;fillColor=#000000;aspect=fixed;rounded=1;shadow=0;comic=0;fontFamily=Verdana;fontSize=12;fontColor=#000000;flipV=1;" vertex="1" parent="1">
          <mxGeometry x="1480" y="1940" width="1345.62" height="765.05" as="geometry" />
        </mxCell>
        <mxCell id="CLuHvQ0Rmz4d9WrAWOhu-51" value="" style="verticalLabelPosition=bottom;html=1;verticalAlign=top;strokeWidth=1;dashed=0;shape=mxgraph.aws3d.dashedArrowlessEdge;aspect=fixed;rounded=1;shadow=0;comic=0;fontFamily=Verdana;fontSize=12;flipV=1;" vertex="1" parent="1">
          <mxGeometry x="2900" y="2750" width="1365.47" height="778.7" as="geometry" />
        </mxCell>
        <mxCell id="CLuHvQ0Rmz4d9WrAWOhu-52" value="" style="verticalLabelPosition=bottom;html=1;verticalAlign=top;strokeWidth=1;align=center;outlineConnect=0;dashed=0;outlineConnect=0;shape=mxgraph.aws3d.route53;fillColor=#ECECEC;strokeColor=#5E5E5E;aspect=fixed;" vertex="1" parent="1">
          <mxGeometry x="2150" y="1270" width="117.17" height="134.4" as="geometry" />
        </mxCell>
        <mxCell id="CLuHvQ0Rmz4d9WrAWOhu-55" value="&lt;font style=&quot;font-size: 30px;&quot;&gt;OpenSearch&lt;/font&gt;" style="verticalLabelPosition=bottom;html=1;verticalAlign=top;strokeWidth=1;align=center;outlineConnect=0;dashed=0;outlineConnect=0;shape=mxgraph.aws3d.searchEngine;fillColor=#ECECEC;strokeColor=#5E5E5E;aspect=fixed;fontStyle=1;fontSize=30;" vertex="1" parent="1">
          <mxGeometry x="2306" y="2562" width="176.25" height="188" as="geometry" />
        </mxCell>
        <mxCell id="CLuHvQ0Rmz4d9WrAWOhu-56" value="OpenSearch" style="verticalLabelPosition=bottom;html=1;verticalAlign=top;strokeWidth=1;align=center;outlineConnect=0;dashed=0;outlineConnect=0;shape=mxgraph.aws3d.searchEngine;fillColor=#ECECEC;strokeColor=#5E5E5E;aspect=fixed;fontSize=30;fontStyle=1" vertex="1" parent="1">
          <mxGeometry x="2570" y="2710" width="180" height="192" as="geometry" />
        </mxCell>
        <mxCell id="CLuHvQ0Rmz4d9WrAWOhu-57" value="OpenSearch" style="verticalLabelPosition=bottom;html=1;verticalAlign=top;strokeWidth=1;align=center;outlineConnect=0;dashed=0;outlineConnect=0;shape=mxgraph.aws3d.searchEngine;fillColor=#ECECEC;strokeColor=#5E5E5E;aspect=fixed;fontStyle=1;fontSize=30;" vertex="1" parent="1">
          <mxGeometry x="2850" y="2880" width="180" height="192" as="geometry" />
        </mxCell>
        <mxCell id="CLuHvQ0Rmz4d9WrAWOhu-58" value="" style="verticalLabelPosition=bottom;html=1;verticalAlign=top;strokeWidth=1;dashed=0;shape=mxgraph.aws3d.secureConnection;fillColor=#000000;strokeColor=#ffffff;aspect=fixed;rounded=1;shadow=0;comic=0;fontSize=12" vertex="1" parent="1">
          <mxGeometry x="2410.17" y="2331.13" width="56.99999999999999" height="34" as="geometry" />
        </mxCell>
        <mxCell id="CLuHvQ0Rmz4d9WrAWOhu-59" value="" style="edgeStyle=isometricEdgeStyle;endArrow=none;html=1;labelBackgroundColor=none;strokeWidth=5;fontFamily=Verdana;fontSize=12;startArrow=none;exitX=0.667;exitY=0.412;exitDx=0;exitDy=0;exitPerimeter=0;entryX=0.043;entryY=0.018;entryDx=0;entryDy=0;entryPerimeter=0;" edge="1" parent="1" source="CLuHvQ0Rmz4d9WrAWOhu-58">
          <mxGeometry width="50" height="100" relative="1" as="geometry">
            <mxPoint x="2590" y="2527.788475772934" as="sourcePoint" />
            <mxPoint x="2697.1883500000004" y="2198.7402999999995" as="targetPoint" />
            <Array as="points" />
          </mxGeometry>
        </mxCell>
        <mxCell id="CLuHvQ0Rmz4d9WrAWOhu-60" value="" style="edgeStyle=isometricEdgeStyle;endArrow=none;html=1;labelBackgroundColor=none;strokeWidth=5;fontFamily=Verdana;fontSize=12;startArrow=none;" edge="1" parent="1" source="CLuHvQ0Rmz4d9WrAWOhu-47" target="CLuHvQ0Rmz4d9WrAWOhu-56">
          <mxGeometry width="50" height="100" relative="1" as="geometry">
            <mxPoint x="2587" y="2413.4544826719043" as="sourcePoint" />
            <mxPoint x="2733" y="2616.0384757729335" as="targetPoint" />
            <Array as="points" />
          </mxGeometry>
        </mxCell>
        <mxCell id="CLuHvQ0Rmz4d9WrAWOhu-61" value="" style="edgeStyle=isometricEdgeStyle;endArrow=none;html=1;labelBackgroundColor=none;strokeWidth=5;fontFamily=Verdana;fontSize=12;startArrow=none;entryX=0.526;entryY=0.529;entryDx=0;entryDy=0;entryPerimeter=0;" edge="1" parent="1" target="CLuHvQ0Rmz4d9WrAWOhu-47">
          <mxGeometry width="50" height="100" relative="1" as="geometry">
            <mxPoint x="3181.6785306586817" y="2506.25" as="sourcePoint" />
            <mxPoint x="2760" y="2764.038475772934" as="targetPoint" />
            <Array as="points" />
          </mxGeometry>
        </mxCell>
        <mxCell id="CLuHvQ0Rmz4d9WrAWOhu-62" value="" style="edgeStyle=isometricEdgeStyle;endArrow=none;html=1;labelBackgroundColor=none;strokeWidth=5;fontFamily=Verdana;fontSize=12;startArrow=none;" edge="1" parent="1" source="CLuHvQ0Rmz4d9WrAWOhu-63" target="CLuHvQ0Rmz4d9WrAWOhu-68">
          <mxGeometry width="50" height="100" relative="1" as="geometry">
            <mxPoint x="3030" y="2924.0384757729335" as="sourcePoint" />
            <mxPoint x="3711.6581132209812" y="2853" as="targetPoint" />
            <Array as="points">
              <mxPoint x="3810" y="2800" />
              <mxPoint x="3720" y="2840" />
              <mxPoint x="3660" y="2890" />
              <mxPoint x="3500" y="2980" />
            </Array>
          </mxGeometry>
        </mxCell>
        <mxCell id="CLuHvQ0Rmz4d9WrAWOhu-63" value="" style="verticalLabelPosition=bottom;html=1;verticalAlign=top;strokeWidth=1;dashed=0;shape=mxgraph.aws3d.secureConnection;fillColor=#000000;strokeColor=#ffffff;aspect=fixed;rounded=1;shadow=0;comic=0;fontSize=12" vertex="1" parent="1">
          <mxGeometry x="3450" y="2970" width="56.99999999999999" height="34" as="geometry" />
        </mxCell>
        <mxCell id="CLuHvQ0Rmz4d9WrAWOhu-64" value="" style="edgeStyle=isometricEdgeStyle;endArrow=none;html=1;labelBackgroundColor=none;strokeWidth=5;fontFamily=Verdana;fontSize=12;startArrow=none;" edge="1" parent="1" source="CLuHvQ0Rmz4d9WrAWOhu-57" target="CLuHvQ0Rmz4d9WrAWOhu-63">
          <mxGeometry width="50" height="100" relative="1" as="geometry">
            <mxPoint x="3030" y="2924.038475772934" as="sourcePoint" />
            <mxPoint x="3713.6135405397818" y="2853" as="targetPoint" />
            <Array as="points" />
          </mxGeometry>
        </mxCell>
        <mxCell id="CLuHvQ0Rmz4d9WrAWOhu-66" value="OpenSearch-Dashboard" style="verticalLabelPosition=bottom;html=1;verticalAlign=top;strokeWidth=1;align=center;outlineConnect=0;dashed=0;outlineConnect=0;shape=mxgraph.aws3d.application2;fillColor=#86E83A;strokeColor=#B0F373;aspect=fixed;fontSize=30;fontStyle=1" vertex="1" parent="1">
          <mxGeometry x="2740.15" y="2047" width="149.85" height="128.1" as="geometry" />
        </mxCell>
        <mxCell id="CLuHvQ0Rmz4d9WrAWOhu-67" value="OpenSearch-Dashboard" style="verticalLabelPosition=bottom;html=1;verticalAlign=top;strokeWidth=1;align=center;outlineConnect=0;dashed=0;outlineConnect=0;shape=mxgraph.aws3d.application2;fillColor=#86E83A;strokeColor=#B0F373;aspect=fixed;fontSize=30;fontStyle=1" vertex="1" parent="1">
          <mxGeometry x="3260" y="2345.7" width="149.85" height="128.1" as="geometry" />
        </mxCell>
        <mxCell id="CLuHvQ0Rmz4d9WrAWOhu-68" value="OpenSearch-Dashboard" style="verticalLabelPosition=bottom;html=1;verticalAlign=top;strokeWidth=1;align=center;outlineConnect=0;dashed=0;outlineConnect=0;shape=mxgraph.aws3d.application2;fillColor=#86E83A;strokeColor=#B0F373;aspect=fixed;fontSize=30;fontStyle=1" vertex="1" parent="1">
          <mxGeometry x="3840" y="2671.9" width="149.85" height="128.1" as="geometry" />
        </mxCell>
        <mxCell id="CLuHvQ0Rmz4d9WrAWOhu-69" value="" style="edgeStyle=isometricEdgeStyle;endArrow=none;html=1;labelBackgroundColor=none;strokeWidth=5;fontFamily=Verdana;fontSize=12;startArrow=none;entryX=0.526;entryY=0.529;entryDx=0;entryDy=0;entryPerimeter=0;" edge="1" parent="1" source="CLuHvQ0Rmz4d9WrAWOhu-45">
          <mxGeometry width="50" height="100" relative="1" as="geometry">
            <mxPoint x="3171.6985306586816" y="1920" as="sourcePoint" />
            <mxPoint x="2910.0020000000004" y="2072.736" as="targetPoint" />
            <Array as="points" />
          </mxGeometry>
        </mxCell>
        <mxCell id="CLuHvQ0Rmz4d9WrAWOhu-70" value="" style="edgeStyle=isometricEdgeStyle;endArrow=none;html=1;labelBackgroundColor=none;strokeWidth=5;fontFamily=Verdana;fontSize=12;startArrow=none;exitX=0.326;exitY=0.705;exitDx=0;exitDy=0;exitPerimeter=0;" edge="1" parent="1" source="CLuHvQ0Rmz4d9WrAWOhu-45" target="CLuHvQ0Rmz4d9WrAWOhu-67">
          <mxGeometry width="50" height="100" relative="1" as="geometry">
            <mxPoint x="3670" y="2240" as="sourcePoint" />
            <mxPoint x="3452.311469341318" y="2350" as="targetPoint" />
            <Array as="points">
              <mxPoint x="3740" y="2190" />
              <mxPoint x="3690" y="2210" />
              <mxPoint x="3540" y="2300" />
            </Array>
          </mxGeometry>
        </mxCell>
        <mxCell id="CLuHvQ0Rmz4d9WrAWOhu-71" value="" style="edgeStyle=isometricEdgeStyle;endArrow=none;html=1;labelBackgroundColor=none;strokeWidth=5;fontFamily=Verdana;fontSize=12;startArrow=none;" edge="1" parent="1">
          <mxGeometry width="50" height="100" relative="1" as="geometry">
            <mxPoint x="3720" y="2200.643112382723" as="sourcePoint" />
            <mxPoint x="3976.6618867790185" y="2700" as="targetPoint" />
            <Array as="points">
              <mxPoint x="3860" y="2420" />
            </Array>
          </mxGeometry>
        </mxCell>
        <mxCell id="CLuHvQ0Rmz4d9WrAWOhu-72" value="" style="verticalLabelPosition=bottom;html=1;verticalAlign=top;strokeWidth=1;align=center;outlineConnect=0;dashed=0;outlineConnect=0;shape=mxgraph.aws3d.end_user;strokeColor=none;fillColor=#777777;aspect=fixed;fontSize=31;" vertex="1" parent="1">
          <mxGeometry x="3940.85" y="1900" width="49" height="100.46" as="geometry" />
        </mxCell>
        <mxCell id="CLuHvQ0Rmz4d9WrAWOhu-74" value="PrivateCloud&lt;br&gt;ManagementZone" style="verticalLabelPosition=bottom;html=1;verticalAlign=top;strokeWidth=1;dashed=0;shape=mxgraph.aws3d.internetGateway;fillColor=#ECECEC;strokeColor=#5E5E5E;aspect=fixed;rounded=1;shadow=0;comic=0;fontSize=31;flipH=1;flipV=0;fontStyle=1" vertex="1" parent="1">
          <mxGeometry x="2750" y="1740" width="210" height="184.99" as="geometry" />
        </mxCell>
        <mxCell id="CLuHvQ0Rmz4d9WrAWOhu-75" value="FluentBit" style="verticalLabelPosition=bottom;html=1;verticalAlign=top;strokeWidth=1;align=center;outlineConnect=0;dashed=0;outlineConnect=0;shape=mxgraph.aws3d.sqs;fillColor=#ECECEC;strokeColor=#5E5E5E;aspect=fixed;direction=east;fontSize=30;fontStyle=1" vertex="1" parent="1">
          <mxGeometry x="-30" y="1970" width="184" height="212.75" as="geometry" />
        </mxCell>
        <mxCell id="CLuHvQ0Rmz4d9WrAWOhu-76" value="Fluentd" style="verticalLabelPosition=bottom;html=1;verticalAlign=top;strokeWidth=1;align=center;outlineConnect=0;dashed=0;outlineConnect=0;shape=mxgraph.aws3d.sqs;fillColor=#ECECEC;strokeColor=#5E5E5E;aspect=fixed;direction=east;fontSize=30;fontStyle=1" vertex="1" parent="1">
          <mxGeometry x="2260" y="3212.75" width="184" height="212.75" as="geometry" />
        </mxCell>
        <mxCell id="CLuHvQ0Rmz4d9WrAWOhu-77" value="FluentBit" style="verticalLabelPosition=bottom;html=1;verticalAlign=top;strokeWidth=1;align=center;outlineConnect=0;dashed=0;outlineConnect=0;shape=mxgraph.aws3d.sqs;fillColor=#ECECEC;strokeColor=#5E5E5E;aspect=fixed;direction=east;fontSize=30;fontStyle=1" vertex="1" parent="1">
          <mxGeometry x="1880" y="3000" width="184" height="212.75" as="geometry" />
        </mxCell>
      </root>
    </mxGraphModel>
  </diagram>
</mxfile>
